<?xml version="1.0" standalone="no"?>
<!DOCTYPE svg PUBLIC "-//W3C//DTD SVG 20010904//EN"
 "http://www.w3.org/TR/2001/REC-SVG-20010904/DTD/svg10.dtd">
<svg version="1.0" xmlns="http://www.w3.org/2000/svg"
 width="1198.000000pt" height="325.000000pt" viewBox="0 0 1198.000000 325.000000"
 preserveAspectRatio="xMidYMid meet">

<g transform="translate(0.000000,325.000000) scale(0.100000,-0.100000)"
fill="#000000" stroke="none">
<path d="M2180 2602 c-25 -10 -46 -24 -47 -32 -2 -9 19 -27 49 -45 68 -39 90
-87 64 -141 -9 -19 -34 -59 -55 -87 -54 -72 -98 -163 -117 -244 -21 -91 -20
-261 1 -349 19 -77 81 -216 113 -254 l21 -25 1 86 c1 219 107 422 282 539 70
47 104 51 118 16 10 -27 -3 -86 -27 -122 -21 -32 -10 -43 32 -34 85 19 176 99
221 194 36 76 44 77 296 39 99 -15 109 -15 133 1 44 29 27 73 -50 126 -30 20
-47 42 -56 67 -60 185 -285 278 -557 231 -65 -11 -71 -10 -159 20 -106 37
-191 41 -263 14z"/>
<path d="M4175 2228 c-3 -7 -4 -213 -3 -458 l3 -445 70 0 70 0 0 455 0 455
-68 3 c-48 2 -69 -1 -72 -10z"/>
<path d="M5155 2228 c-3 -7 -4 -213 -3 -458 l3 -445 70 0 70 0 3 223 c2 186 5
227 19 248 37 58 139 73 190 30 l28 -24 5 -239 5 -238 70 0 70 0 0 245 c0 135
-3 257 -8 272 -9 34 -61 94 -96 113 -70 35 -175 26 -238 -21 -17 -13 -34 -24
-37 -24 -3 0 -7 73 -8 163 l-3 162 -68 3 c-48 2 -69 -1 -72 -10z"/>
<path d="M9247 2234 c-4 -4 -7 -77 -7 -161 l0 -154 -29 20 c-47 34 -121 46
-185 32 -131 -29 -206 -147 -206 -324 0 -163 58 -278 162 -322 68 -28 190 -13
237 29 23 21 29 20 33 -6 3 -21 8 -23 68 -23 l65 0 0 455 0 455 -65 3 c-36 2
-69 0 -73 -4z m-36 -422 c29 -32 29 -33 29 -168 l0 -136 -33 -33 c-59 -59
-139 -56 -192 7 -31 37 -45 87 -45 163 0 83 16 133 56 173 33 33 37 34 96 30
53 -4 65 -9 89 -36z"/>
<path d="M5874 2205 c-34 -14 -44 -31 -44 -76 0 -43 31 -69 84 -69 37 0 48 5
66 27 53 68 -24 154 -106 118z"/>
<path d="M7880 2188 c-11 -12 -20 -35 -20 -53 0 -47 32 -75 85 -75 35 0 48 5
64 26 12 15 21 37 21 49 0 12 -9 34 -21 49 -27 35 -98 37 -129 4z"/>
<path d="M6822 1758 l3 -433 74 -3 74 -3 -5 323 c-3 178 -1 314 3 303 5 -11
41 -105 80 -210 40 -104 91 -239 114 -300 l42 -110 57 -3 c50 -3 57 -1 66 20
5 13 54 146 110 296 55 150 106 285 115 300 14 26 15 24 9 -38 -3 -36 -6 -180
-7 -320 l-2 -255 75 0 75 0 0 430 0 430 -99 0 -99 0 -35 -95 c-145 -390 -198
-527 -207 -529 -5 -1 -62 138 -126 311 l-117 313 -101 3 -101 3 2 -433z"/>
<path d="M3000 2089 c0 -6 11 -25 25 -44 48 -63 67 -138 63 -250 -5 -126 -30
-194 -100 -270 -101 -111 -169 -135 -408 -144 -150 -6 -182 -11 -225 -30 -84
-37 -145 -113 -145 -179 0 -24 5 -30 28 -35 15 -3 153 -2 307 3 270 7 283 8
355 35 114 41 177 82 261 165 62 62 86 95 122 171 59 121 82 231 74 349 -6 84
-31 197 -47 213 -4 5 -24 4 -44 -2 -35 -9 -62 -7 -238 24 -16 2 -28 0 -28 -6z"/>
<path d="M3665 1967 c-94 -31 -149 -79 -187 -162 -20 -43 -23 -66 -23 -165 0
-101 3 -121 24 -160 53 -103 135 -160 242 -168 133 -9 240 50 295 166 25 51
28 68 29 162 0 93 -3 111 -26 160 -36 76 -71 115 -132 145 -65 31 -164 41
-222 22z m145 -129 c65 -34 85 -79 85 -193 0 -72 -4 -98 -21 -129 -30 -58 -66
-81 -124 -81 -97 0 -150 75 -150 210 1 116 36 183 106 205 45 13 57 12 104
-12z"/>
<path d="M4710 1969 c-19 -6 -50 -22 -67 -35 -32 -24 -33 -24 -33 -5 0 11 -9
25 -19 31 -23 12 -91 13 -109 2 -10 -7 -12 -103 -10 -448 l3 -439 49 -3 c100
-6 96 -12 96 155 0 140 1 145 18 130 27 -25 99 -47 151 -47 100 0 200 82 231
188 35 121 16 291 -43 379 -53 79 -173 120 -267 92z m100 -134 c17 -9 40 -34
52 -58 19 -35 23 -57 23 -137 0 -82 -4 -101 -24 -137 -24 -43 -70 -73 -110
-73 -35 0 -99 31 -115 55 -21 32 -23 290 -2 317 34 46 121 62 176 33z"/>
<path d="M6383 1966 c-23 -8 -54 -23 -69 -35 -34 -27 -44 -27 -44 3 0 13 -7
27 -16 30 -23 9 -97 7 -112 -2 -9 -7 -12 -78 -10 -323 l3 -314 70 0 70 0 5
225 c3 156 9 232 18 247 36 64 165 72 209 14 9 -11 12 -79 13 -238 0 -122 3
-228 6 -237 5 -12 21 -16 75 -16 l69 0 0 236 c0 145 -4 253 -12 281 -27 110
-150 168 -275 129z"/>
<path d="M8411 1965 c-24 -7 -56 -25 -70 -39 -30 -28 -41 -25 -41 10 0 12 -7
25 -16 28 -29 11 -101 6 -113 -8 -8 -9 -11 -103 -9 -322 l3 -309 70 0 70 0 5
225 c5 243 9 258 61 285 35 19 107 22 137 6 40 -21 44 -43 43 -271 -1 -120 2
-225 5 -234 5 -13 21 -16 75 -16 l69 0 0 250 c0 272 -4 297 -58 353 -28 29
-106 57 -156 56 -17 0 -51 -6 -75 -14z"/>
<path d="M5842 1958 c-13 -13 -18 -527 -6 -600 l7 -38 68 0 69 0 1 218 c1 119
3 260 4 312 2 55 -1 100 -7 108 -13 16 -120 16 -136 0z"/>
<path d="M7875 1958 c-3 -7 -4 -153 -3 -323 l3 -310 70 0 70 0 0 320 0 320
-68 3 c-48 2 -69 -1 -72 -10z"/>
</g>
</svg>
